<svg width="650" height="1080" viewBox="0 0 650 1080" fill="none" xmlns="http://www.w3.org/2000/svg">

<path opacity="0.5" fill-rule="evenodd" clip-rule="evenodd" d="M265 540C265 568.284 265 582.427 273.787 591.214L376.213 488.787C367.427 480 353.284 480 325 480C296.716 480 282.574 480 273.787 488.787C265 497.574 265 511.716 265 540Z" fill="#1C274D"/>
<path d="M301 496.5C303.485 496.5 305.5 498.515 305.5 501V511.5H316C318.485 511.5 320.5 513.515 320.5 516C320.5 518.486 318.485 520.5 316 520.5H305.5V531C305.5 533.485 303.485 535.5 301 535.5C298.515 535.5 296.5 533.485 296.5 531V520.5H286C283.515 520.5 281.5 518.486 281.5 516C281.5 513.515 283.515 511.5 286 511.5H296.5V501C296.5 498.515 298.515 496.5 301 496.5Z" fill="#1C274D"/>
<path fill-rule="evenodd" clip-rule="evenodd" d="M325.003 600C296.718 600 282.576 600 273.79 591.213L376.216 488.786C385.003 497.573 385.003 511.715 385.003 540C385.003 568.284 385.003 582.427 376.216 591.213C367.429 600 353.287 600 325.003 600ZM361.004 574.501C363.489 574.501 365.504 572.486 365.504 570C365.504 567.515 363.489 565.5 361.004 565.5H331.004C328.518 565.5 326.504 567.515 326.504 570C326.504 572.486 328.518 574.501 331.004 574.501H361.004Z" fill="#1C274D"/>
<path d="M335.85 572.68C335.85 572.92 335.79 573.14 335.67 573.34C335.55 573.54 335.39 573.7 335.19 573.82C334.99 573.94 334.77 574 334.53 574H331.86C331.733 574 331.623 573.957 331.53 573.87C331.443 573.777 331.4 573.667 331.4 573.54V567.7C331.4 567.567 331.443 567.457 331.53 567.37C331.623 567.283 331.733 567.24 331.86 567.24H334.53C334.77 567.24 334.99 567.3 335.19 567.42C335.39 567.54 335.55 567.7 335.67 567.9C335.79 568.1 335.85 568.323 335.85 568.57V572.68ZM334.66 572.68V568.57C334.66 568.477 334.617 568.43 334.53 568.43H332.73C332.643 568.43 332.6 568.473 332.6 568.56V572.69C332.6 572.777 332.643 572.82 332.73 572.82H334.53C334.563 572.82 334.593 572.807 334.62 572.78C334.647 572.747 334.66 572.713 334.66 572.68ZM340.964 567.51C340.997 567.59 341.007 567.677 340.994 567.77C340.987 567.857 340.95 567.937 340.884 568.01L338.594 570.53C338.534 570.59 338.534 570.653 338.594 570.72L340.884 573.23C340.95 573.297 340.987 573.377 340.994 573.47C341.007 573.557 340.997 573.64 340.964 573.72C340.93 573.807 340.874 573.877 340.794 573.93C340.72 573.977 340.64 574 340.554 574H340.174C340.054 574 339.944 573.95 339.844 573.85L337.954 571.77C337.94 571.75 337.92 571.747 337.894 571.76C337.874 571.767 337.864 571.78 337.864 571.8V573.54C337.864 573.667 337.817 573.777 337.724 573.87C337.637 573.957 337.53 574 337.404 574H337.124C336.997 574 336.89 573.957 336.804 573.87C336.717 573.777 336.674 573.667 336.674 573.54V567.7C336.674 567.567 336.717 567.457 336.804 567.37C336.89 567.283 336.997 567.24 337.124 567.24H337.404C337.53 567.24 337.637 567.283 337.724 567.37C337.817 567.457 337.864 567.567 337.864 567.7V569.43C337.864 569.457 337.874 569.473 337.894 569.48C337.92 569.487 337.94 569.483 337.954 569.47L339.844 567.39C339.944 567.29 340.057 567.24 340.184 567.24H340.554C340.747 567.24 340.884 567.33 340.964 567.51ZM345.71 573.54C345.71 573.667 345.663 573.777 345.57 573.87C345.483 573.957 345.377 574 345.25 574H342.27C342.143 574 342.033 573.957 341.94 573.87C341.853 573.777 341.81 573.667 341.81 573.54V573.28C341.81 573.147 341.853 573.037 341.94 572.95C342.033 572.863 342.143 572.82 342.27 572.82H345.25C345.377 572.82 345.483 572.863 345.57 572.95C345.663 573.037 345.71 573.147 345.71 573.28V573.54ZM351.087 572.68C351.087 572.92 351.027 573.14 350.907 573.34C350.787 573.54 350.627 573.7 350.427 573.82C350.227 573.94 350.007 574 349.767 574H347.847C347.634 574 347.431 573.95 347.237 573.85L347.227 573.84C347.007 573.727 346.834 573.567 346.707 573.36C346.581 573.147 346.517 572.92 346.517 572.68V568.57C346.517 568.323 346.577 568.1 346.697 567.9C346.817 567.7 346.977 567.54 347.177 567.42C347.384 567.3 347.607 567.24 347.847 567.24H349.767C349.827 567.24 349.907 567.25 350.007 567.27C350.114 567.283 350.224 567.32 350.337 567.38H350.347C350.574 567.493 350.754 567.657 350.887 567.87C351.021 568.077 351.087 568.31 351.087 568.57V572.68ZM349.227 568.55C349.241 568.517 349.241 568.49 349.227 568.47C349.214 568.443 349.191 568.43 349.157 568.43H347.847C347.814 568.43 347.781 568.443 347.747 568.47C347.721 568.497 347.707 568.53 347.707 568.57V571.17C347.707 571.197 347.721 571.213 347.747 571.22C347.774 571.227 347.794 571.217 347.807 571.19L349.227 568.55ZM349.897 572.68V570.01C349.897 569.977 349.884 569.957 349.857 569.95C349.837 569.943 349.817 569.953 349.797 569.98L348.347 572.7C348.341 572.727 348.344 572.753 348.357 572.78C348.371 572.807 348.391 572.82 348.417 572.82H349.767C349.801 572.82 349.831 572.807 349.857 572.78C349.884 572.747 349.897 572.713 349.897 572.68ZM355.208 569.49L354.308 571.31C354.261 571.383 354.261 571.46 354.308 571.54L355.198 573.34C355.278 573.493 355.271 573.64 355.178 573.78C355.091 573.927 354.965 574 354.798 574H354.488C354.301 574 354.165 573.917 354.078 573.75L353.638 572.86C353.631 572.84 353.611 572.83 353.578 572.83C353.551 572.83 353.531 572.84 353.518 572.86L353.088 573.75C353.001 573.917 352.861 574 352.668 574H352.358C352.191 574 352.065 573.927 351.978 573.78C351.891 573.64 351.885 573.493 351.958 573.34L352.858 571.54C352.891 571.46 352.891 571.38 352.858 571.3L351.948 569.49C351.875 569.337 351.881 569.187 351.968 569.04C352.061 568.893 352.191 568.82 352.358 568.82H352.668C352.761 568.82 352.841 568.847 352.908 568.9C352.981 568.947 353.038 569.007 353.078 569.08L353.518 569.98C353.531 570 353.551 570.01 353.578 570.01C353.611 570.01 353.631 570 353.638 569.98L354.088 569.08C354.128 569.007 354.181 568.947 354.248 568.9C354.321 568.847 354.401 568.82 354.488 568.82H354.798C354.958 568.82 355.088 568.893 355.188 569.04C355.275 569.187 355.281 569.337 355.208 569.49ZM360.638 572.68C360.638 572.92 360.578 573.14 360.458 573.34C360.338 573.54 360.178 573.7 359.978 573.82C359.778 573.94 359.558 574 359.318 574H357.398C357.158 574 356.935 573.94 356.728 573.82C356.528 573.7 356.368 573.54 356.248 573.34C356.128 573.14 356.068 572.92 356.068 572.68V572.38C356.068 572.253 356.112 572.147 356.198 572.06C356.292 571.967 356.402 571.92 356.528 571.92H356.808C356.928 571.92 357.032 571.967 357.118 572.06C357.212 572.147 357.258 572.253 357.258 572.38V572.68C357.258 572.713 357.272 572.747 357.298 572.78C357.332 572.807 357.365 572.82 357.398 572.82H359.318C359.352 572.82 359.382 572.807 359.408 572.78C359.435 572.747 359.448 572.713 359.448 572.68V571.35C359.448 571.263 359.405 571.22 359.318 571.22H357.398C357.272 571.22 357.162 571.177 357.068 571.09C356.982 570.997 356.938 570.887 356.938 570.76V570.48C356.938 570.353 356.982 570.247 357.068 570.16C357.162 570.073 357.272 570.03 357.398 570.03H359.318C359.352 570.03 359.382 570.017 359.408 569.99C359.435 569.957 359.448 569.923 359.448 569.89V568.57C359.448 568.477 359.405 568.43 359.318 568.43H357.398C357.365 568.43 357.332 568.443 357.298 568.47C357.272 568.497 357.258 568.53 357.258 568.57V568.84C357.258 568.967 357.212 569.073 357.118 569.16C357.032 569.247 356.928 569.29 356.808 569.29H356.528C356.402 569.29 356.292 569.247 356.198 569.16C356.112 569.073 356.068 568.967 356.068 568.84V568.57C356.068 568.323 356.128 568.1 356.248 567.9C356.368 567.7 356.528 567.54 356.728 567.42C356.935 567.3 357.158 567.24 357.398 567.24H359.318C359.558 567.24 359.778 567.3 359.978 567.42C360.178 567.54 360.338 567.7 360.458 567.9C360.578 568.1 360.638 568.323 360.638 568.57V569.89C360.638 569.997 360.625 570.103 360.598 570.21C360.572 570.317 360.535 570.42 360.488 570.52C360.435 570.587 360.435 570.657 360.488 570.73C360.535 570.823 360.572 570.923 360.598 571.03C360.625 571.137 360.638 571.243 360.638 571.35V572.68Z" fill="#636363"/>
</svg>
