<svg width="256" height="256" viewBox="0 0 256 256" fill="none" xmlns="http://www.w3.org/2000/svg">
<g clip-path="url(#clip0_9_16)">
<path d="M256 0H0V256H256V0Z" fill="#F0F0F0"/>
<path d="M113.696 161.168C114.171 161.168 114.6 161.277 114.984 161.496C115.368 161.709 115.669 162.005 115.888 162.384C116.107 162.757 116.216 163.176 116.216 163.64C116.216 164.109 116.109 164.533 115.896 164.912C115.688 165.285 115.392 165.579 115.008 165.792C114.629 166.005 114.192 166.112 113.696 166.112C113.189 166.112 112.744 166.005 112.36 165.792C111.976 165.579 111.68 165.285 111.472 164.912C111.264 164.533 111.16 164.109 111.16 163.64C111.16 163.176 111.269 162.757 111.488 162.384C111.712 162.005 112.016 161.709 112.4 161.496C112.789 161.277 113.221 161.168 113.696 161.168ZM113.696 161.696C113.344 161.696 113.024 161.781 112.736 161.952C112.448 162.123 112.219 162.357 112.048 162.656C111.883 162.949 111.8 163.277 111.8 163.64C111.8 164.003 111.877 164.333 112.032 164.632C112.192 164.925 112.416 165.157 112.704 165.328C112.992 165.499 113.323 165.584 113.696 165.584C114.069 165.584 114.397 165.501 114.68 165.336C114.968 165.165 115.189 164.933 115.344 164.64C115.499 164.341 115.576 164.008 115.576 163.64C115.576 163.277 115.493 162.949 115.328 162.656C115.163 162.357 114.936 162.123 114.648 161.952C114.365 161.781 114.048 161.696 113.696 161.696ZM114.608 164.776C114.304 164.872 113.981 164.92 113.64 164.92C113.245 164.92 112.949 164.819 112.752 164.616C112.555 164.413 112.456 164.101 112.456 163.68C112.456 163.472 112.483 163.267 112.536 163.064C112.595 162.856 112.656 162.717 112.72 162.648C112.795 162.563 112.941 162.493 113.16 162.44C113.379 162.381 113.605 162.352 113.84 162.352C114.064 162.352 114.309 162.373 114.576 162.416C114.571 162.507 114.56 162.613 114.544 162.736C114.528 162.853 114.512 162.957 114.496 163.048C114.352 163.032 114.179 163.024 113.976 163.024C113.88 163.019 113.789 163.021 113.704 163.032C113.619 163.037 113.563 163.045 113.536 163.056C113.504 163.067 113.477 163.139 113.456 163.272C113.435 163.405 113.424 163.531 113.424 163.648C113.424 163.877 113.472 164.032 113.568 164.112C113.669 164.192 113.84 164.232 114.08 164.232C114.208 164.232 114.36 164.224 114.536 164.208L114.608 164.776ZM118.375 161.44C118.999 161.44 119.508 161.499 119.903 161.616C120.303 161.733 120.612 161.955 120.831 162.28C121.055 162.605 121.167 163.072 121.167 163.68C121.167 164.331 121.05 164.827 120.815 165.168C120.58 165.504 120.266 165.728 119.871 165.84C119.476 165.947 118.978 166 118.375 166H116.775V161.44H118.375ZM119.447 164.912C119.511 164.848 119.556 164.683 119.583 164.416C119.61 164.149 119.623 163.904 119.623 163.68C119.623 163.397 119.602 163.173 119.559 163.008C119.522 162.837 119.452 162.701 119.351 162.6C119.191 162.424 118.916 162.336 118.527 162.336C118.458 162.336 118.354 162.341 118.215 162.352V165.008C118.306 165.019 118.447 165.024 118.639 165.024C118.836 165.024 119.01 165.016 119.159 165C119.314 164.979 119.41 164.949 119.447 164.912ZM126.062 166H124.486L123.598 164.296C123.582 164.269 123.54 164.195 123.47 164.072C123.406 163.949 123.334 163.832 123.254 163.72V166H121.814V161.44H123.254V163.512C123.345 163.411 123.422 163.301 123.486 163.184C123.556 163.061 123.596 162.989 123.606 162.968L124.462 161.44H125.982L125.07 162.968C125.054 162.989 125.02 163.045 124.966 163.136C124.913 163.227 124.854 163.312 124.79 163.392C124.732 163.467 124.668 163.536 124.598 163.6C124.694 163.691 124.772 163.781 124.83 163.872C124.894 163.957 124.966 164.072 125.046 164.216L126.062 166ZM126.256 166.504H130.496V167.408H126.256V166.504ZM132.966 161.384C133.409 161.384 133.777 161.443 134.07 161.56C134.364 161.672 134.596 161.901 134.766 162.248C134.937 162.589 135.022 163.088 135.022 163.744C135.022 164.373 134.94 164.861 134.774 165.208C134.609 165.549 134.377 165.784 134.078 165.912C133.785 166.04 133.417 166.104 132.974 166.104C132.334 166.104 131.844 165.936 131.502 165.6C131.161 165.259 130.99 164.675 130.99 163.848C130.99 163.016 131.156 162.397 131.486 161.992C131.817 161.587 132.31 161.384 132.966 161.384ZM133.014 165.072C133.281 165.072 133.454 164.968 133.534 164.76C133.614 164.547 133.654 164.213 133.654 163.76C133.654 163.296 133.606 162.955 133.51 162.736C133.414 162.512 133.233 162.4 132.966 162.4C132.78 162.4 132.654 162.432 132.59 162.496C132.542 162.549 132.5 162.709 132.462 162.976C132.43 163.243 132.414 163.515 132.414 163.792C132.414 164.261 132.46 164.592 132.55 164.784C132.646 164.976 132.801 165.072 133.014 165.072ZM136.281 164.12L135.361 162.32H136.689L137.353 163.744L138.025 162.32H139.345L138.433 164.12L139.433 166H138.097L137.353 164.48L136.609 166H135.273L136.281 164.12ZM141.926 163.672C142.305 163.699 142.577 163.805 142.742 163.992C142.907 164.179 142.99 164.411 142.99 164.688C142.99 165.088 142.841 165.424 142.542 165.696C142.243 165.963 141.766 166.096 141.11 166.096C140.667 166.096 140.174 166.053 139.63 165.968L139.79 165.088C140.27 165.109 140.585 165.12 140.734 165.12C141.027 165.12 141.241 165.083 141.374 165.008C141.513 164.933 141.582 164.787 141.582 164.568C141.582 164.413 141.531 164.299 141.43 164.224C141.334 164.144 141.195 164.093 141.014 164.072C140.833 164.051 140.574 164.04 140.238 164.04V163.296C140.574 163.296 140.827 163.288 140.998 163.272C141.174 163.251 141.307 163.205 141.398 163.136C141.494 163.067 141.542 162.957 141.542 162.808C141.542 162.68 141.539 162.579 141.534 162.504C141.529 162.429 141.51 162.381 141.478 162.36C141.435 162.333 141.246 162.32 140.91 162.32C140.606 162.32 140.235 162.331 139.798 162.352L139.718 161.504C140.299 161.424 140.766 161.384 141.118 161.384C141.63 161.384 142.049 161.483 142.374 161.68C142.705 161.877 142.87 162.197 142.87 162.64C142.87 162.864 142.795 163.077 142.646 163.28C142.502 163.477 142.262 163.6 141.926 163.648V163.672Z" fill="black"/>
<path d="M95.0478 89.8408C91.5765 86.3695 91.5765 80.7413 95.0478 77.27C98.5192 73.7987 104.147 73.7987 107.619 77.27L178.73 148.381C182.201 151.852 182.201 157.481 178.73 160.952C175.258 164.423 169.63 164.423 166.159 160.952L95.0478 89.8408Z" fill="#D8D8D8" stroke="#FAFAFA" stroke-width="3.41333" stroke-linecap="round" stroke-linejoin="round"/>
<mask id="mask0_9_16" style="mask-type:luminance" maskUnits="userSpaceOnUse" x="90" y="72" width="94" height="94">
<path d="M95.0478 89.8408C91.5765 86.3695 91.5765 80.7413 95.0478 77.27C98.5192 73.7987 104.147 73.7987 107.619 77.27L178.73 148.381C182.201 151.852 182.201 157.481 178.73 160.952C175.258 164.423 169.63 164.423 166.159 160.952L95.0478 89.8408Z" fill="white" stroke="#FAFAFA" stroke-width="3.41333" stroke-linecap="round" stroke-linejoin="round"/>
</mask>
<g mask="url(#mask0_9_16)">
<path d="M234.666 21.333H21.333V234.666H234.666V21.333Z" fill="#B80000" stroke="#FAFAFA" stroke-width="3.41333" stroke-linecap="round" stroke-linejoin="round"/>
</g>
<path d="M128 140.571L98.7299 169.841C95.2586 173.312 89.6305 173.312 86.1592 169.841C82.6878 166.37 82.6878 160.741 86.1592 157.27L115.429 128L86.1592 98.7297C82.6878 95.2584 82.6878 89.6303 86.1592 86.1589C89.6305 82.6876 95.2586 82.6876 98.7299 86.1589L128 115.429L157.27 86.1589C160.742 82.6876 166.37 82.6876 169.841 86.1589C173.312 89.6303 173.312 95.2584 169.841 98.7297L140.571 128L169.841 157.27C173.312 160.741 173.312 166.37 169.841 169.841C166.37 173.312 160.742 173.312 157.27 169.841L128 140.571Z" fill="black" stroke="#FAFAFA" stroke-width="3.41333" stroke-linecap="round" stroke-linejoin="round"/>
<mask id="mask1_9_16" style="mask-type:luminance" maskUnits="userSpaceOnUse" x="81" y="81" width="94" height="94">
<path d="M128 140.571L98.7299 169.841C95.2586 173.312 89.6305 173.312 86.1592 169.841C82.6878 166.37 82.6878 160.741 86.1592 157.27L115.429 128L86.1592 98.7297C82.6878 95.2584 82.6878 89.6303 86.1592 86.1589C89.6305 82.6876 95.2586 82.6876 98.7299 86.1589L128 115.429L157.27 86.1589C160.742 82.6876 166.37 82.6876 169.841 86.1589C173.312 89.6303 173.312 95.2584 169.841 98.7297L140.571 128L169.841 157.27C173.312 160.741 173.312 166.37 169.841 169.841C166.37 173.312 160.742 173.312 157.27 169.841L128 140.571Z" fill="white" stroke="#FAFAFA" stroke-width="3.41333" stroke-linecap="round" stroke-linejoin="round"/>
</mask>
<g mask="url(#mask1_9_16)">
<path d="M21.333 21.3332L21.333 234.667H234.666V21.3332H21.333Z" fill="#002080" stroke="#FAFAFA" stroke-width="3.41333" stroke-linecap="round" stroke-linejoin="round"/>
</g>
<path d="M95.0478 89.8408C91.5765 86.3695 91.5765 80.7413 95.0478 77.27C98.5192 73.7987 104.147 73.7987 107.619 77.27L178.73 148.381C182.201 151.852 182.201 157.481 178.73 160.952C175.258 164.423 169.63 164.423 166.159 160.952L95.0478 89.8408Z" fill="#D8D8D8" stroke="black" stroke-width="0.00213333"/>
<mask id="mask2_9_16" style="mask-type:luminance" maskUnits="userSpaceOnUse" x="90" y="72" width="94" height="94">
<path d="M95.0478 89.8408C91.5765 86.3695 91.5765 80.7413 95.0478 77.27C98.5192 73.7987 104.147 73.7987 107.619 77.27L178.73 148.381C182.201 151.852 182.201 157.481 178.73 160.952C175.258 164.423 169.63 164.423 166.159 160.952L95.0478 89.8408Z" fill="white" stroke="#FAFAFA" stroke-width="3.41333" stroke-linecap="round" stroke-linejoin="round"/>
</mask>
<g mask="url(#mask2_9_16)">
<path d="M234.666 21.333H21.333V234.666H234.666V21.333Z" fill="#B80000" stroke="black" stroke-width="0.00213333"/>
</g>
<path d="M128 140.571L98.7299 169.841C95.2586 173.312 89.6305 173.312 86.1592 169.841C82.6878 166.37 82.6878 160.741 86.1592 157.27L115.429 128L86.1592 98.7297C82.6878 95.2584 82.6878 89.6303 86.1592 86.1589C89.6305 82.6876 95.2586 82.6876 98.7299 86.1589L128 115.429L157.27 86.1589C160.742 82.6876 166.37 82.6876 169.841 86.1589C173.312 89.6303 173.312 95.2584 169.841 98.7297L140.571 128L169.841 157.27C173.312 160.741 173.312 166.37 169.841 169.841C166.37 173.312 160.742 173.312 157.27 169.841L128 140.571Z" fill="black" stroke="black" stroke-width="0.00213333"/>
<mask id="mask3_9_16" style="mask-type:luminance" maskUnits="userSpaceOnUse" x="81" y="81" width="94" height="94">
<path d="M128 140.571L98.7299 169.841C95.2586 173.312 89.6305 173.312 86.1592 169.841C82.6878 166.37 82.6878 160.741 86.1592 157.27L115.429 128L86.1592 98.7297C82.6878 95.2584 82.6878 89.6303 86.1592 86.1589C89.6305 82.6876 95.2586 82.6876 98.7299 86.1589L128 115.429L157.27 86.1589C160.742 82.6876 166.37 82.6876 169.841 86.1589C173.312 89.6303 173.312 95.2584 169.841 98.7297L140.571 128L169.841 157.27C173.312 160.741 173.312 166.37 169.841 169.841C166.37 173.312 160.742 173.312 157.27 169.841L128 140.571Z" fill="white" stroke="#FAFAFA" stroke-width="3.41333" stroke-linecap="round" stroke-linejoin="round"/>
</mask>
<g mask="url(#mask3_9_16)">
<path d="M21.333 21.3332L21.333 234.667H234.666V21.3332H21.333Z" fill="#002080" stroke="black" stroke-width="0.00213333"/>
</g>
</g>
<defs>
<clipPath id="clip0_9_16">
<rect width="256" height="256" fill="white"/>
</clipPath>
</defs>
</svg>
