<svg width="80px" height="80px" viewBox="0 0 800 800" fill="none" xmlns="http://www.w3.org/2000/svg">
<path d="M305.105 180.279C347.327 104.538 368.437 66.6665 400 66.6665C431.563 66.6665 452.673 104.537 494.893 180.279L505.817 199.874C517.817 221.398 523.813 232.16 533.17 239.26C542.523 246.361 554.17 248.996 577.47 254.268L598.683 259.067C680.67 277.618 721.667 286.894 731.42 318.258C741.173 349.62 713.227 382.303 657.33 447.663L642.87 464.573C626.987 483.146 619.043 492.433 615.47 503.923C611.9 515.413 613.1 527.803 615.5 552.587L617.687 575.146C626.137 662.353 630.363 705.956 604.83 725.34C579.293 744.723 540.91 727.05 464.143 691.706L444.283 682.56C422.47 672.517 411.563 667.493 400 667.493C388.437 667.493 377.53 672.517 355.717 682.56L335.857 691.706C259.089 727.05 220.706 744.723 195.172 725.34C169.637 705.956 173.863 662.353 182.313 575.146L184.499 552.587C186.901 527.803 188.102 515.413 184.529 503.923C180.956 492.433 173.014 483.146 157.131 464.573L142.67 447.663C86.7749 382.303 58.8272 349.62 68.5806 318.258C78.3339 286.894 119.329 277.618 201.318 259.067L222.53 254.268C245.828 248.996 257.478 246.361 266.831 239.26C276.185 232.16 282.184 221.398 294.182 199.874L305.105 180.279Z" stroke="white" stroke-opacity="0.7" stroke-width="50"/>
</svg>
