<svg width="718" height="718" viewBox="0 0 718 718" fill="none" xmlns="http://www.w3.org/2000/svg">
<path d="M74.4823 643.517C123.298 692.333 201.865 692.333 359 692.333C516.133 692.333 594.703 692.333 643.517 643.517C692.333 594.703 692.333 516.133 692.333 359C692.333 201.865 692.333 123.298 643.517 74.4823M74.4823 643.517C25.6666 594.703 25.6666 516.133 25.6666 359C25.6666 201.865 25.6666 123.298 74.4823 74.4823C123.298 25.6666 201.865 25.6666 359 25.6666C516.133 25.6666 594.703 25.6666 643.517 74.4823M74.4823 643.517L643.517 74.4823" stroke="black" stroke-width="50"/>
<path opacity="0.5" d="M559 525.667H392.333" stroke="white" stroke-width="50" stroke-linecap="round"/>
<path opacity="0.5" d="M309 225.667H225.667M225.667 225.667H142.333M225.667 225.667V142.333M225.667 225.667V309" stroke="white" stroke-width="50" stroke-linecap="round"/>
</svg>
