<svg width="50" height="50" viewBox="0 0 50 50" fill="none" xmlns="http://www.w3.org/2000/svg">
<path d="M32.4536 7.04561L36.6203 9.23217C41.103 11.5845 43.3442 12.7607 44.5888 14.8743C45.8334 16.9879 45.8334 19.6179 45.8334 24.878V25.1217C45.8334 30.3817 45.8334 33.0119 44.5888 35.1255C43.3442 37.239 41.103 38.415 36.6203 40.7675L32.4536 42.954C28.7961 44.8734 26.9674 45.8332 25.0001 45.8332C23.0328 45.8332 21.204 44.8734 17.5465 42.954L13.3799 40.7675C8.89723 38.415 6.65589 37.239 5.41133 35.1255C4.16675 33.0119 4.16675 30.3817 4.16675 25.1217V24.878C4.16675 19.6179 4.16675 16.9879 5.41133 14.8743C6.65589 12.7607 8.89723 11.5845 13.3799 9.23217L17.5465 7.04561C21.204 5.12621 23.0328 4.1665 25.0001 4.1665C26.9674 4.1665 28.7961 5.12621 32.4536 7.04561Z" stroke="black" stroke-width="3.125" stroke-linecap="round"/>
<path opacity="0.5" d="M43.75 15.625L25 25M25 25L6.25 15.625M25 25V44.7917" stroke="white" stroke-width="3.125" stroke-linecap="round"/>
</svg>
