<svg width="800" height="800" viewBox="0 0 800 800" fill="none" xmlns="http://www.w3.org/2000/svg">
<path opacity="0.5" d="M233.333 166.667L200 133.333" stroke="white" stroke-width="50" stroke-linecap="round"/>
<path opacity="0.5" d="M122.765 344.993L120.143 297.927" stroke="white" stroke-width="50" stroke-linecap="round"/>
<path d="M400 500C455.228 500 500 455.228 500 400C500 344.772 455.228 300 400 300C344.772 300 300 344.772 300 400C300 455.228 344.772 500 400 500Z" stroke="black" stroke-opacity="0.5" stroke-width="50"/>
<path d="M483.333 233.333L533.333 166.667" stroke="white" stroke-width="50" stroke-linecap="round"/>
<path opacity="0.5" d="M633.333 233.333L666.667 200" stroke="white" stroke-width="50" stroke-linecap="round"/>
<path d="M400 166.667L366.667 133.333" stroke="white" stroke-width="50" stroke-linecap="round"/>
<path opacity="0.5" d="M350 233.333L304.466 245.535" stroke="white" stroke-width="50" stroke-linecap="round"/>
<path d="M226.415 304.795L206.907 261.88" stroke="white" stroke-width="50" stroke-linecap="round"/>
<path opacity="0.5" d="M66.6665 433.333C66.6665 433.333 140.028 500 200 500C240.399 500 286.876 469.747 312.908 450" stroke="black" stroke-width="50"/>
<path opacity="0.5" d="M533.333 516.667C516.667 500 482.377 487.963 466.667 474.12" stroke="white" stroke-width="50"/>
<path opacity="0.5" d="M554.99 299.22L557.204 346.31" stroke="white" stroke-width="50" stroke-linecap="round"/>
<path d="M689.257 336.167L633.32 385.43" stroke="white" stroke-width="50" stroke-linecap="round"/>
<path d="M188.826 421.373L216.667 383.333" stroke="white" stroke-width="50" stroke-linecap="round"/>
<path d="M416.666 733.333L417.81 758.307C427.033 757.883 435.273 752.413 439.24 744.073C443.21 735.737 442.256 725.893 436.766 718.467L416.666 733.333ZM720.883 490.56L704.666 509.586C711.153 515.113 720.006 516.956 728.156 514.476C736.31 512 742.64 505.54 744.946 497.336L720.883 490.56ZM619.466 554.087L599.363 568.953C603.69 574.803 610.353 578.48 617.61 579.02C624.866 579.56 631.996 576.91 637.143 571.766L619.466 554.087ZM622.846 550.706L640.523 568.383C646.236 562.67 648.836 554.55 647.503 546.58L622.846 550.706ZM487.303 643.033L479.793 666.88C488.683 669.68 498.39 667.3 504.98 660.71L487.303 643.033ZM493.48 636.856L511.156 654.537C519.91 645.783 520.94 631.943 513.58 621.993L493.48 636.856ZM400 708.333C229.712 708.333 91.6665 570.286 91.6665 400H41.6665C41.6665 597.903 202.098 758.333 400 758.333V708.333ZM91.6665 400C91.6665 229.712 229.712 91.6665 400 91.6665V41.6665C202.098 41.6665 41.6665 202.098 41.6665 400H91.6665ZM400 91.6665C570.286 91.6665 708.333 229.712 708.333 400H758.333C758.333 202.098 597.903 41.6665 400 41.6665V91.6665ZM436.766 718.467C428.996 707.963 430.093 686.363 446.33 674.353L416.6 634.153C379.37 661.686 371.497 714.3 396.567 748.2L436.766 718.467ZM507.403 613.64C497.553 600.323 499.54 572.816 525.513 553.61L495.783 513.406C454.92 543.626 436.003 601.183 467.203 643.37L507.403 613.64ZM525.513 553.61C551.483 534.403 578.366 540.56 588.216 553.877L628.417 524.146C597.217 481.96 536.643 483.19 495.783 513.406L525.513 553.61ZM664.153 513.266C680.71 501.02 697.53 503.5 704.666 509.586L737.103 471.533C708.206 446.903 665.026 450.43 634.423 473.063L664.153 513.266ZM708.333 400C708.333 429.076 704.316 457.17 696.82 483.783L744.946 497.336C753.673 466.356 758.333 433.703 758.333 400H708.333ZM415.523 708.36C411.066 708.563 406.723 708.333 400 708.333V758.333C403.676 758.333 411.983 758.573 417.81 758.307L415.523 708.36ZM588.216 553.877L599.363 568.953L639.566 539.223L628.417 524.146L588.216 553.877ZM647.503 546.58C645.973 537.43 650.413 523.426 664.153 513.266L634.423 473.063C608.063 492.56 593.07 524.253 598.19 554.833L647.503 546.58ZM637.143 571.766L640.523 568.383L605.17 533.03L601.786 536.41L637.143 571.766ZM446.33 674.353C458.233 665.55 471.173 664.163 479.793 666.88L494.813 619.186C469.247 611.136 439.87 616.943 416.6 634.153L446.33 674.353ZM467.203 643.37L473.38 651.723L513.58 621.993L507.403 613.64L467.203 643.37ZM504.98 660.71L511.156 654.537L475.8 619.18L469.627 625.356L504.98 660.71Z" fill="black" fill-opacity="0.5"/>
</svg>
