<svg width="71px" height="71px" viewBox="0 0 718 718" fill="none" xmlns="http://www.w3.org/2000/svg">
<path d="M264.105 139.279C306.327 63.5375 327.437 25.6665 359 25.6665C390.563 25.6665 411.673 63.5372 453.893 139.279L464.817 158.874C476.817 180.398 482.813 191.16 492.17 198.26C501.523 205.361 513.17 207.996 536.47 213.268L557.683 218.067C639.67 236.618 680.667 245.894 690.42 277.258C700.173 308.62 672.227 341.303 616.33 406.663L601.87 423.573C585.987 442.146 578.043 451.433 574.47 462.923C570.9 474.413 572.1 486.803 574.5 511.587L576.687 534.146C585.137 621.353 589.363 664.956 563.83 684.34C538.293 703.723 499.91 686.05 423.143 650.706L403.283 641.56C381.47 631.517 370.563 626.493 359 626.493C347.437 626.493 336.53 631.517 314.717 641.56L294.857 650.706C218.089 686.05 179.706 703.723 154.172 684.34C128.637 664.956 132.863 621.353 141.313 534.146L143.499 511.587C145.901 486.803 147.102 474.413 143.529 462.923C139.956 451.433 132.014 442.146 116.131 423.573L101.67 406.663C45.7749 341.303 17.8272 308.62 27.5806 277.258C37.3339 245.894 78.3286 236.618 160.318 218.067L181.53 213.268C204.828 207.996 216.478 205.361 225.831 198.26C235.185 191.16 241.184 180.398 253.182 158.874L264.105 139.279Z" fill="#D9D9D9" stroke="white" stroke-opacity="0.7" stroke-width="50"/>
</svg>
