<svg width="50" height="50" viewBox="0 0 50 50" fill="none" xmlns="http://www.w3.org/2000/svg">
<path opacity="0.5" d="M12.5 39.5832C9.04823 39.5832 6.25 36.785 6.25 33.3332V20.8332C6.25 12.9764 6.25 9.04807 8.69077 6.60727C11.1316 4.1665 15.0599 4.1665 22.9167 4.1665H31.25C34.7019 4.1665 37.5 6.96473 37.5 10.4165" stroke="white" stroke-width="3.125"/>
<path d="M12.5 22.9165C12.5 17.0239 12.5 14.0777 14.3306 12.2471C16.1612 10.4165 19.1074 10.4165 25 10.4165H31.25C37.1425 10.4165 40.0887 10.4165 41.9194 12.2471C43.75 14.0777 43.75 17.0239 43.75 22.9165V33.3332C43.75 39.2257 43.75 42.1719 41.9194 44.0025C40.0887 45.8332 37.1425 45.8332 31.25 45.8332H25C19.1074 45.8332 16.1612 45.8332 14.3306 44.0025C12.5 42.1719 12.5 39.2257 12.5 33.3332V22.9165Z" stroke="black" stroke-width="3.125"/>
</svg>
