<svg width="80px" height="80px" viewBox="0 0 800 800" fill="none" xmlns="http://www.w3.org/2000/svg">
<path d="M77.1767 423.26C75.5121 409.02 74.6801 401.9 75.0301 396.03C76.8664 365.257 99.5591 339.76 129.908 334.363C135.698 333.333 142.867 333.333 157.204 333.333H509.46C523.797 333.333 530.967 333.333 536.757 334.363C567.107 339.76 589.8 365.257 591.633 396.03C591.983 401.9 591.153 409.02 589.487 423.26L576.133 537.527C570.103 589.097 542.547 635.713 500.27 665.857C469.12 688.063 431.82 700 393.563 700H273.101C234.846 700 197.543 688.063 166.394 665.857C124.117 635.713 96.5604 589.097 90.5327 537.527L77.1767 423.26Z" stroke="white" stroke-opacity="0.7" stroke-width="50"/>
<path opacity="0.5" d="M566.667 566.667H633.334C688.564 566.667 733.334 521.897 733.334 466.667C733.334 411.437 688.564 366.667 633.334 366.667H583.334" stroke="white" stroke-width="50"/>
<path opacity="0.5" d="M333.34 66.6667C314.929 85.0761 314.929 114.924 333.34 133.333C351.747 151.743 351.747 181.591 333.34 200" stroke="white" stroke-width="50" stroke-linecap="round" stroke-linejoin="round"/>
<path d="M166.665 250L170.535 246.129C187.441 229.224 189.343 202.46 174.998 183.333C160.653 164.207 162.555 137.443 179.461 120.537L183.332 116.667" stroke="white" stroke-width="50" stroke-linecap="round" stroke-linejoin="round"/>
<path d="M483.33 250L487.203 246.129C504.107 229.224 506.01 202.46 491.663 183.333C477.32 164.207 479.223 137.443 496.127 120.537L499.997 116.667" stroke="white" stroke-width="50" stroke-linecap="round" stroke-linejoin="round"/>
</svg>
