<svg width="50" height="50" viewBox="0 0 50 50" fill="none" xmlns="http://www.w3.org/2000/svg">
<path opacity="1" d="M4.1665 25.0001C4.1665 15.1791 4.1665 10.2687 7.21748 7.21773C10.2684 4.16675 15.1789 4.16675 24.9998 4.16675C34.8207 4.16675 39.7313 4.16675 42.7821 7.21773C45.8332 10.2687 45.8332 15.1791 45.8332 25.0001C45.8332 34.8209 45.8332 39.7315 42.7821 42.7824C39.7313 45.8334 34.8207 45.8334 24.9998 45.8334C15.1789 45.8334 10.2684 45.8334 7.21748 42.7824C4.1665 39.7315 4.1665 34.8209 4.1665 25.0001Z" stroke="black" stroke-width="3.125"/>
<path d="M35.4168 14.5833H29.1668M35.4168 14.5833V20.8333M35.4168 14.5833L28.1252 21.8749M14.5835 35.4166H20.8335M14.5835 35.4166V29.1666M14.5835 35.4166L21.8752 28.1249" stroke="white" stroke-opacity="0.5" stroke-width="3.125" stroke-linecap="round" stroke-linejoin="round"/>
</svg>
