<svg width="50" height="56" viewBox="0 0 50 56" fill="none" xmlns="http://www.w3.org/2000/svg">
<g filter="url(#filter0_d_1_80)">
<path opacity="0.5" d="M25.0001 45.8332C31.3284 45.8332 36.4584 40.7032 36.4584 34.3748C36.4584 30.7573 34.7822 27.5315 32.1638 25.4315C31.6145 24.9909 31.2501 24.345 31.2501 23.6409V10.4165C31.2501 6.96473 28.452 4.1665 25.0001 4.1665C21.5482 4.1665 18.7501 6.96473 18.7501 10.4165V23.6409C18.7501 24.345 18.3856 24.9909 17.8364 25.4315C15.2181 27.5315 13.5417 30.7573 13.5417 34.3748C13.5417 40.7032 18.6718 45.8332 25.0001 45.8332Z" stroke="black" stroke-width="3.125"/>
<path d="M24.9997 29.1663C22.123 29.1663 19.7913 31.4982 19.7913 34.3746C19.7913 37.2511 22.123 39.583 24.9997 39.583C27.8761 39.583 30.208 37.2511 30.208 34.3746C30.208 31.4982 27.8761 29.1663 24.9997 29.1663ZM24.9997 29.1663L25.0001 10.4165" stroke="white" stroke-opacity="0.5" stroke-width="3.125" stroke-linecap="round"/>
</g>
<defs>
<filter id="filter0_d_1_80" x="-4" y="0" width="58" height="58" filterUnits="userSpaceOnUse" color-interpolation-filters="sRGB">
<feFlood flood-opacity="0" result="BackgroundImageFix"/>
<feColorMatrix in="SourceAlpha" type="matrix" values="0 0 0 0 0 0 0 0 0 0 0 0 0 0 0 0 0 0 127 0" result="hardAlpha"/>
<feOffset dy="4"/>
<feGaussianBlur stdDeviation="2"/>
<feComposite in2="hardAlpha" operator="out"/>
<feColorMatrix type="matrix" values="0 0 0 0 0 0 0 0 0 0 0 0 0 0 0 0 0 0 0.25 0"/>
<feBlend mode="normal" in2="BackgroundImageFix" result="effect1_dropShadow_1_80"/>
<feBlend mode="normal" in="SourceGraphic" in2="effect1_dropShadow_1_80" result="shape"/>
</filter>
</defs>
</svg>
