<svg width="800px" height="800px" viewBox="0 0 800 800" fill="none" xmlns="http://www.w3.org/2000/svg">
<path d="M122.66 433.333L105.052 451.08C114.799 460.75 130.521 460.75 140.268 451.08L122.66 433.333ZM196.262 395.523C206.063 385.8 206.125 369.97 196.401 360.17C186.676 350.367 170.847 350.307 161.046 360.03L196.262 395.523ZM84.2744 360.03C74.4731 350.307 58.6441 350.367 48.9194 360.17C39.1948 369.97 39.2571 385.8 49.0584 395.523L84.2744 360.03ZM620.52 246.426C627.75 258.188 643.146 261.862 654.91 254.631C666.67 247.4 670.343 232.002 663.113 220.24L620.52 246.426ZM402.63 75C234.385 75 97.6601 210.373 97.6601 377.777H147.66C147.66 238.357 261.628 125 402.63 125V75ZM97.6601 377.777V433.333H147.66V377.777H97.6601ZM140.268 451.08L196.262 395.523L161.046 360.03L105.052 415.587L140.268 451.08ZM140.268 415.587L84.2744 360.03L49.0584 395.523L105.052 451.08L140.268 415.587ZM663.113 220.24C609.566 133.142 512.91 75 402.63 75V125C494.946 125 575.756 173.615 620.52 246.426L663.113 220.24Z" fill="black"/>
<path opacity="0.5" d="M677.123 366.667L694.697 348.887C684.957 339.26 669.287 339.26 659.547 348.887L677.123 366.667ZM603.34 404.443C593.52 414.147 593.427 429.977 603.133 439.797C612.84 449.617 628.667 449.71 638.487 440.003L603.34 404.443ZM715.757 440.003C725.577 449.71 741.403 449.617 751.11 439.797C760.817 429.977 760.723 414.147 750.903 404.44L715.757 440.003ZM177.256 553.537C170.005 541.787 154.602 538.14 142.852 545.393C131.102 552.643 127.455 568.047 134.707 579.797L177.256 553.537ZM396.083 725C564.827 725 702.123 589.717 702.123 422.223H652.123C652.123 561.553 537.767 675 396.083 675V725ZM702.123 422.223V366.667H652.123V422.223H702.123ZM659.547 348.887L603.34 404.443L638.487 440.003L694.697 384.447L659.547 348.887ZM659.547 384.447L715.757 440.003L750.903 404.44L694.697 348.887L659.547 384.447ZM134.707 579.797C188.46 666.9 285.46 725 396.083 725V675C303.333 675 222.187 626.343 177.256 553.537L134.707 579.797Z" fill="white"/>
</svg>
