<svg width="717" height="717" viewBox="0 0 717 717" fill="none" xmlns="http://www.w3.org/2000/svg">
<path opacity="0.5" d="M358.333 691.667C542.428 691.667 691.667 542.428 691.667 358.333C691.667 174.238 542.428 25 358.333 25C174.238 25 25 174.238 25 358.333C25 542.428 174.238 691.667 358.333 691.667Z" stroke="black" stroke-width="50"/>
<path d="M258.333 425H358.333" stroke="white" stroke-opacity="0.5" stroke-width="50" stroke-linecap="round"/>
<path d="M291.667 358.333V231.666C291.667 225.473 291.667 222.377 292.077 219.786C294.337 205.522 305.523 194.336 319.787 192.077C322.377 191.667 325.473 191.667 331.667 191.667H408.333C454.357 191.667 491.667 228.976 491.667 275C491.667 321.023 454.357 358.333 408.333 358.333H291.667ZM291.667 358.333V525M291.667 358.333H258.333" stroke="white" stroke-opacity="0.5" stroke-width="50" stroke-linecap="round"/>
</svg>
