<svg width="50" height="50" viewBox="0 0 50 50" fill="none" xmlns="http://www.w3.org/2000/svg">
<path d="M7.21773 42.7821C10.2687 45.8332 15.1791 45.8332 25.0001 45.8332C34.8209 45.8332 39.7315 45.8332 42.7824 42.7821C45.8334 39.7313 45.8334 34.8207 45.8334 24.9998C45.8334 24.2884 45.8334 23.9328 45.8017 23.5711C45.6547 21.885 44.9709 20.2344 43.8828 18.938C43.6492 18.66 43.3917 18.4023 42.8763 17.8869L32.113 7.12367C31.5976 6.6083 31.3399 6.35057 31.062 6.11715C29.7655 5.029 28.1149 4.34527 26.4288 4.19807C26.0672 4.1665 25.7115 4.1665 25.0001 4.1665C15.1791 4.1665 10.2687 4.1665 7.21773 7.21748C4.16675 10.2684 4.16675 15.1789 4.16675 24.9998C4.16675 34.8207 4.16675 39.7313 7.21773 42.7821Z" stroke="black" stroke-width="3.125"/>
<path opacity="0.5" d="M14.5833 12.5V18.75" stroke="white" stroke-width="3.125" stroke-linecap="round"/>
<path d="M20.8333 12.5V18.75" stroke="white" stroke-opacity="0.5" stroke-width="3.125" stroke-linecap="round"/>
<path opacity="0.5" d="M27.0833 12.5V18.75" stroke="white" stroke-width="3.125" stroke-linecap="round"/>
</svg>
