<svg width="50" height="50" viewBox="0 0 50 50" fill="none" xmlns="http://www.w3.org/2000/svg">
<path opacity="0.5" d="M17.3311 25.4129L25.4145 17.3296M31.8812 23.7962L23.7978 31.8797" stroke="white" stroke-width="3.125"/>
<path d="M7.14919 32.5404C5.26544 30.6566 4.32358 29.7147 4.18925 28.5645C4.15925 28.3079 4.15925 28.0485 4.18925 27.7916C4.32358 26.6416 5.26544 25.6997 7.14916 23.816C9.03289 21.9322 9.97477 20.9904 11.125 20.856C11.3817 20.826 11.6411 20.826 11.8978 20.856C13.048 20.9904 13.9899 21.9322 15.8736 23.816L26.1842 34.1266C28.068 36.0104 29.0099 36.9522 29.1442 38.1025C29.1742 38.3591 29.1742 38.6185 29.1442 38.8754C29.0099 40.0256 28.068 40.9672 26.1842 42.851C24.3005 44.7347 23.3588 45.6766 22.2086 45.811C21.9517 45.841 21.6924 45.841 21.4357 45.811C20.2855 45.6766 19.3436 44.7347 17.4599 42.851L7.14919 32.5404Z" stroke="black" stroke-width="3.125"/>
<path d="M23.8158 15.8734C21.932 13.9896 20.9901 13.0478 20.8558 11.8976C20.8258 11.6408 20.8258 11.3815 20.8558 11.1247C20.9901 9.97452 21.932 9.03267 23.8158 7.14892C25.6995 5.26519 26.6414 4.32334 27.7914 4.189C28.0483 4.159 28.3076 4.159 28.5643 4.189C29.7145 4.32334 30.6564 5.26519 32.5401 7.14892L42.8507 17.4596C44.7345 19.3434 45.6764 20.2852 45.8108 21.4355C45.8408 21.6921 45.8408 21.9515 45.8108 22.2084C45.6764 23.3586 44.7345 24.3003 42.8507 26.184C40.967 28.0678 40.0253 29.0096 38.8751 29.144C38.6183 29.174 38.3589 29.174 38.1022 29.144C36.952 29.0096 36.0101 28.0678 34.1264 26.184L23.8158 15.8734Z" stroke="black" stroke-width="3.125"/>
<path opacity="0.5" d="M37.5391 5.2041L44.0057 11.6708" stroke="white" stroke-width="3.125" stroke-linecap="round" stroke-linejoin="round"/>
<path opacity="0.5" d="M5.20337 37.5386L11.6701 44.0052" stroke="white" stroke-width="3.125" stroke-linecap="round" stroke-linejoin="round"/>
</svg>
