<svg width="800px" height="800px" viewBox="0 0 800 800" fill="none" xmlns="http://www.w3.org/2000/svg">
<path d="M371.4 666.667C297.153 666.667 260.028 666.667 229.038 649.953C198.048 633.237 178.372 602.603 139.02 541.333L116.327 506C83.2201 454.453 66.6667 428.68 66.6667 400C66.6667 371.32 83.2201 345.547 116.327 294L139.02 258.667C178.372 197.397 198.048 166.762 229.038 150.048C260.028 133.333 297.153 133.333 371.4 133.333H459.3C588.48 133.333 653.07 133.333 693.203 172.386C733.333 211.438 733.333 274.292 733.333 400C733.333 525.707 733.333 588.563 693.203 627.613C653.07 666.667 588.48 666.667 459.3 666.667H371.4Z" stroke="black" stroke-width="50"/>
<path opacity="0.5" d="M516.667 316.667L350 483.333M350 316.667L516.667 483.333" stroke="white" stroke-width="50" stroke-linecap="round"/>
</svg>
