<svg width="50" height="50" viewBox="0 0 50 50" fill="none" xmlns="http://www.w3.org/2000/svg">
<path d="M15.3699 26.1577L14.2002 27.1935C14.482 27.5118 14.8814 27.7014 15.3062 27.7187C15.7309 27.7362 16.1444 27.5797 16.4513 27.2854L15.3699 26.1577ZM19.8314 24.0447C20.4543 23.4475 20.4751 22.4583 19.8779 21.8354C19.2806 21.2127 18.2916 21.1918 17.6687 21.7889L19.8314 24.0447ZM13.6698 21.881C13.0976 21.235 12.1101 21.175 11.4641 21.747C10.8181 22.3191 10.7582 23.3066 11.3303 23.9527L13.6698 21.881ZM31.1077 18.7695C31.6938 19.403 32.6823 19.4415 33.3156 18.8555C33.9492 18.2695 33.9877 17.2809 33.4017 16.6475L31.1077 18.7695ZM25.0911 13.021C18.8709 13.021 13.8074 18.0272 13.8074 24.2285H16.9324C16.9324 19.7762 20.5736 16.146 25.0911 16.146V13.021ZM13.8074 24.2285V26.1577H16.9324V24.2285H13.8074ZM16.4513 27.2854L19.8314 24.0447L17.6687 21.7889L14.2886 25.0297L16.4513 27.2854ZM16.5397 25.1216L13.6698 21.881L11.3303 23.9527L14.2002 27.1935L16.5397 25.1216ZM33.4017 16.6475C31.3398 14.4187 28.3775 13.021 25.0911 13.021V16.146C27.4748 16.146 29.6154 17.1565 31.1077 18.7695L33.4017 16.6475Z" fill="white" fill-opacity="0.5"/>
<path d="M34.6224 23.8423L35.7906 22.8046C35.5083 22.4869 35.1089 22.2979 34.6843 22.281C34.2597 22.2641 33.8466 22.421 33.5401 22.7154L34.6224 23.8423ZM30.1676 25.9544C29.5451 26.5521 29.5253 27.5412 30.123 28.1635C30.7208 28.786 31.7099 28.806 32.3322 28.2083L30.1676 25.9544ZM36.3318 28.1191C36.9049 28.7641 37.8926 28.8225 38.5376 28.2494C39.1828 27.6762 39.2412 26.6887 38.668 26.0435L36.3318 28.1191ZM18.8476 31.2598C18.257 30.6306 17.2682 30.5991 16.639 31.1898C16.0098 31.7802 15.9784 32.7691 16.5689 33.3983L18.8476 31.2598ZM24.8641 36.9789C31.0991 36.9789 36.1849 31.9783 36.1849 25.7714H33.0599C33.0599 30.2181 29.4078 33.8539 24.8641 33.8539V36.9789ZM36.1849 25.7714V23.8423H33.0599V25.7714H36.1849ZM33.5401 22.7154L30.1676 25.9544L32.3322 28.2083L35.7047 24.9694L33.5401 22.7154ZM33.4543 24.8802L36.3318 28.1191L38.668 26.0435L35.7906 22.8046L33.4543 24.8802ZM16.5689 33.3983C18.6362 35.601 21.5905 36.9789 24.8641 36.9789V33.8539C22.4833 33.8539 20.3446 32.855 18.8476 31.2598L16.5689 33.3983Z" fill="white" fill-opacity="0.5"/>
<path opacity="0.5" d="M25.0001 45.8332C36.506 45.8332 45.8334 36.5058 45.8334 24.9998C45.8334 13.4939 36.506 4.1665 25.0001 4.1665C13.4941 4.1665 4.16675 13.4939 4.16675 24.9998C4.16675 36.5058 13.4941 45.8332 25.0001 45.8332Z" stroke="black" stroke-width="3.125"/>
</svg>
