<!DOCTYPE svg PUBLIC "-//W3C//DTD SVG 1.1//EN" "http://www.w3.org/Graphics/SVG/1.1/DTD/svg11.dtd">
<!-- Uploaded to: SVG Repo, www.svgrepo.com, Transformed by: SVG Repo Mixer Tools -->
<svg width="256px" height="256px" viewBox="-2.4 -2.4 28.80 28.80" xmlns="http://www.w3.org/2000/svg" xmlns:xlink="http://www.w3.org/1999/xlink" fill="#000000" stroke="#000000" stroke-width="0.00024000000000000003" transform="matrix(1, 0, 0, 1, 0, 0)">
<g id="SVGRepo_bgCarrier" stroke-width="0" transform="translate(0,0), scale(1)">
<rect x="-2.4" y="-2.4" width="28.80" height="28.80" rx="0" fill="#f0f0f0" strokewidth="0"/>
</g>
<g id="SVGRepo_tracerCarrier" stroke-linecap="round" stroke-linejoin="round" stroke="#fafafa" stroke-width="0.384"> <defs> <path id="cross-a" d="M0.292893219,1.70710678 C-0.0976310729,1.31658249 -0.0976310729,0.683417511 0.292893219,0.292893219 C0.683417511,-0.0976310729 1.31658249,-0.0976310729 1.70710678,0.292893219 L9.70710678,8.29289322 C10.0976311,8.68341751 10.0976311,9.31658249 9.70710678,9.70710678 C9.31658249,10.0976311 8.68341751,10.0976311 8.29289322,9.70710678 L0.292893219,1.70710678 Z"/> <path id="cross-c" d="M3.58578644,5 L0.292893219,1.70710678 C-0.0976310729,1.31658249 -0.0976310729,0.683417511 0.292893219,0.292893219 C0.683417511,-0.0976310729 1.31658249,-0.0976310729 1.70710678,0.292893219 L5,3.58578644 L8.29289322,0.292893219 C8.68341751,-0.0976310729 9.31658249,-0.0976310729 9.70710678,0.292893219 C10.0976311,0.683417511 10.0976311,1.31658249 9.70710678,1.70710678 L6.41421356,5 L9.70710678,8.29289322 C10.0976311,8.68341751 10.0976311,9.31658249 9.70710678,9.70710678 C9.31658249,10.0976311 8.68341751,10.0976311 8.29289322,9.70710678 L5,6.41421356 L1.70710678,9.70710678 C1.31658249,10.0976311 0.683417511,10.0976311 0.292893219,9.70710678 C-0.0976310729,9.31658249 -0.0976310729,8.68341751 0.292893219,8.29289322 L3.58578644,5 Z"/> </defs> <g fill="none" fill-rule="evenodd"> <g transform="translate(8 6)"> <mask id="cross-b" fill="#ffffff"> <use xlink:href="#cross-a"/> </mask> <use fill="#D8D8D8" fill-rule="nonzero" xlink:href="#cross-a"/> <g fill="#b80000" mask="url(#cross-b)"> <rect width="24" height="24" transform="translate(-8 -6)"/> </g> </g> <g transform="rotate(-90 12 5)"> <mask id="cross-d" fill="#ffffff"> <use xlink:href="#cross-c"/> </mask> <use fill="#000000" fill-rule="nonzero" xlink:href="#cross-c"/> <g fill="#002080" mask="url(#cross-d)"> <rect width="24" height="24" transform="translate(-7 -7)"/> </g> </g> </g> </g>
<g id="SVGRepo_iconCarrier"> <defs> <path id="cross-a" d="M0.292893219,1.70710678 C-0.0976310729,1.31658249 -0.0976310729,0.683417511 0.292893219,0.292893219 C0.683417511,-0.0976310729 1.31658249,-0.0976310729 1.70710678,0.292893219 L9.70710678,8.29289322 C10.0976311,8.68341751 10.0976311,9.31658249 9.70710678,9.70710678 C9.31658249,10.0976311 8.68341751,10.0976311 8.29289322,9.70710678 L0.292893219,1.70710678 Z"/> <path id="cross-c" d="M3.58578644,5 L0.292893219,1.70710678 C-0.0976310729,1.31658249 -0.0976310729,0.683417511 0.292893219,0.292893219 C0.683417511,-0.0976310729 1.31658249,-0.0976310729 1.70710678,0.292893219 L5,3.58578644 L8.29289322,0.292893219 C8.68341751,-0.0976310729 9.31658249,-0.0976310729 9.70710678,0.292893219 C10.0976311,0.683417511 10.0976311,1.31658249 9.70710678,1.70710678 L6.41421356,5 L9.70710678,8.29289322 C10.0976311,8.68341751 10.0976311,9.31658249 9.70710678,9.70710678 C9.31658249,10.0976311 8.68341751,10.0976311 8.29289322,9.70710678 L5,6.41421356 L1.70710678,9.70710678 C1.31658249,10.0976311 0.683417511,10.0976311 0.292893219,9.70710678 C-0.0976310729,9.31658249 -0.0976310729,8.68341751 0.292893219,8.29289322 L3.58578644,5 Z"/> </defs> <g fill="none" fill-rule="evenodd"> <g transform="translate(8 6)"> <mask id="cross-b" fill="#ffffff"> <use xlink:href="#cross-a"/> </mask> <use fill="#D8D8D8" fill-rule="nonzero" xlink:href="#cross-a"/> <g fill="#b80000" mask="url(#cross-b)"> <rect width="24" height="24" transform="translate(-8 -6)"/> </g> </g> <g transform="rotate(-90 12 5)"> <mask id="cross-d" fill="#ffffff"> <use xlink:href="#cross-c"/> </mask> <use fill="#000000" fill-rule="nonzero" xlink:href="#cross-c"/> <g fill="#002080" mask="url(#cross-d)"> <rect width="24" height="24" transform="translate(-7 -7)"/> </g> </g> </g> </g>
</svg>