<svg width="32px" height="32px" viewBox="0 0 32 32" fill="none" xmlns="http://www.w3.org/2000/svg">
<rect x="15.2" y="20.8" width="12.8" height="6.40001" fill="white"/>
<path opacity="0.5" fill-rule="evenodd" clip-rule="evenodd" d="M0 16.0001C0 23.5425 -1.9073e-07 27.3139 2.34309 29.657L29.6561 2.34316C27.3131 -1.90736e-07 23.5418 0 15.9996 0C8.45731 0 4.68617 -1.90736e-07 2.34309 2.34316C-1.9073e-07 4.68631 0 8.45757 0 16.0001Z" fill="#09006C"/>
<path opacity="0.5" fill-rule="evenodd" clip-rule="evenodd" d="M0 16.0001C0 23.5425 -1.9073e-07 27.3139 2.34309 29.657L29.6561 2.34316C27.3131 -1.90736e-07 23.5418 0 15.9996 0C8.45731 0 4.68617 -1.90736e-07 2.34309 2.34316C-1.9073e-07 4.68631 0 8.45757 0 16.0001Z" fill="#09006C"/>
<path opacity="0.5" fill-rule="evenodd" clip-rule="evenodd" d="M0 16.0001C0 23.5425 -1.9073e-07 27.3139 2.34309 29.657L29.6561 2.34316C27.3131 -1.90736e-07 23.5418 0 15.9996 0C8.45731 0 4.68617 -1.90736e-07 2.34309 2.34316C-1.9073e-07 4.68631 0 8.45757 0 16.0001Z" fill="#09006C"/>
<path opacity="0.5" fill-rule="evenodd" clip-rule="evenodd" d="M0 16.0001C0 23.5425 -1.9073e-07 27.3139 2.34309 29.657L29.6561 2.34316C27.3131 -1.90736e-07 23.5418 0 15.9996 0C8.45731 0 4.68617 -1.90736e-07 2.34309 2.34316C-1.9073e-07 4.68631 0 8.45757 0 16.0001Z" fill="#09006C"/>
<path opacity="0.5" fill-rule="evenodd" clip-rule="evenodd" d="M0 16.0001C0 23.5425 -1.9073e-07 27.3139 2.34309 29.657L29.6561 2.34316C27.3131 -1.90736e-07 23.5418 0 15.9996 0C8.45731 0 4.68617 -1.90736e-07 2.34309 2.34316C-1.9073e-07 4.68631 0 8.45757 0 16.0001Z" fill="#09006C"/>
<path opacity="0.5" fill-rule="evenodd" clip-rule="evenodd" d="M0 16.0001C0 23.5425 -1.9073e-07 27.3139 2.34309 29.657L29.6561 2.34316C27.3131 -1.90736e-07 23.5418 0 15.9996 0C8.45731 0 4.68617 -1.90736e-07 2.34309 2.34316C-1.9073e-07 4.68631 0 8.45757 0 16.0001Z" fill="#09006C"/>
<path opacity="0.5" fill-rule="evenodd" clip-rule="evenodd" d="M0 16.0001C0 23.5425 -1.9073e-07 27.3139 2.34309 29.657L29.6561 2.34316C27.3131 -1.90736e-07 23.5418 0 15.9996 0C8.45731 0 4.68617 -1.90736e-07 2.34309 2.34316C-1.9073e-07 4.68631 0 8.45757 0 16.0001Z" fill="#09006C"/>
<path opacity="0.5" fill-rule="evenodd" clip-rule="evenodd" d="M0 16.0001C0 23.5425 -1.9073e-07 27.3139 2.34309 29.657L29.6561 2.34316C27.3131 -1.90736e-07 23.5418 0 15.9996 0C8.45731 0 4.68617 -1.90736e-07 2.34309 2.34316C-1.9073e-07 4.68631 0 8.45757 0 16.0001Z" fill="black"/>
<path opacity="0.5" fill-rule="evenodd" clip-rule="evenodd" d="M0 16.0001C0 23.5425 -1.9073e-07 27.3139 2.34309 29.657L29.6561 2.34316C27.3131 -1.90736e-07 23.5418 0 15.9996 0C8.45731 0 4.68617 -1.90736e-07 2.34309 2.34316C-1.9073e-07 4.68631 0 8.45757 0 16.0001Z" fill="#09006C"/>
<path opacity="0.5" fill-rule="evenodd" clip-rule="evenodd" d="M0 16.0001C0 23.5425 -1.9073e-07 27.3139 2.34309 29.657L29.6561 2.34316C27.3131 -1.90736e-07 23.5418 0 15.9996 0C8.45731 0 4.68617 -1.90736e-07 2.34309 2.34316C-1.9073e-07 4.68631 0 8.45757 0 16.0001Z" fill="#09006C"/>
<path opacity="0.5" fill-rule="evenodd" clip-rule="evenodd" d="M0 16.0001C0 23.5425 -1.9073e-07 27.3139 2.34309 29.657L29.6561 2.34316C27.3131 -1.90736e-07 23.5418 0 15.9996 0C8.45731 0 4.68617 -1.90736e-07 2.34309 2.34316C-1.9073e-07 4.68631 0 8.45757 0 16.0001Z" fill="black"/>
<path d="M9.59978 4.39999C10.2625 4.39999 10.7997 4.93726 10.7997 5.6V8.40005H13.5997C14.2624 8.40005 14.7996 8.93731 14.7996 9.60005C14.7996 10.2628 14.2624 10.8001 13.5997 10.8001H10.7997V13.6C10.7997 14.2628 10.2625 14.8 9.59978 14.8C8.93706 14.8 8.39981 14.2628 8.39981 13.6V10.8001H5.59987C4.93715 10.8001 4.3999 10.2628 4.3999 9.60005C4.3999 8.93731 4.93715 8.40005 5.59987 8.40005H8.39981V5.6C8.39981 4.93726 8.93706 4.39999 9.59978 4.39999Z" fill="white"/>
<path fill-rule="evenodd" clip-rule="evenodd" d="M16.0003 32C8.45799 32 4.68685 32 2.34375 29.6568L29.6568 2.34296C31.9999 4.68611 31.9999 8.45736 31.9999 15.9999C31.9999 23.5423 31.9999 27.3137 29.6568 29.6568C27.3136 32 23.5425 32 16.0003 32ZM25.6002 25.2001C26.2629 25.2001 26.8002 24.6628 26.8002 24.0001C26.8002 23.3374 26.2629 22.8001 25.6002 22.8001H17.6004C16.9377 22.8001 16.4005 23.3374 16.4005 24.0001C16.4005 24.6628 16.9377 25.2001 17.6004 25.2001H25.6002Z" fill="#1C274D"/>
</svg>
